# Blender 5.2.1 LTS
# www.blender.org
o 2teepee_trunc
v 82.273758 -0.000006 -39.144875
v 32.846447 -0.000006 -39.144875
v -50.323677 -0.000001 -8.873423
v 81.469872 20.468267 -9.838928
v 79.224411 20.468267 -10.382442
v 75.880394 18.516533 -6.919042
v 77.843842 20.123095 -2.534231
v 80.134125 20.468269 -2.263532
v 81.860603 23.728273 -5.864570
v 89.189857 20.468264 -30.902597
v 89.774277 20.468266 -24.222593
v 93.411545 23.728271 -25.871384
v 90.275620 17.155556 -29.608633
v 73.457550 20.468262 -44.773819
v 75.591011 19.287697 -41.379856
v 77.749496 20.468264 -40.685692
v 80.181427 20.468262 -41.638424
v 58.254288 9.302646 -6.212501
v 61.103100 10.376150 -9.524676
v 59.519608 9.604980 -13.543363
v 55.600601 9.604980 -13.543363
v 54.017109 10.376150 -9.524676
v 56.865921 9.302646 -6.212501
v 67.611832 16.679041 31.832899
v 68.009697 17.802450 27.199266
v 66.082253 17.552876 25.463945
v 63.808521 16.329472 25.287130
v 144.120544 -0.000007 -40.544746
v 146.389343 3.275796 -37.265099
v 150.013153 -0.000006 -35.600258
v 111.274078 -0.000008 -49.700127
v 115.120209 3.275794 -48.646130
v 118.966339 -0.000008 -49.700127
v 113.529427 64.956078 -1.895830
v 112.682991 64.956078 -0.429758
v 112.976952 64.956078 1.237398
v 114.273773 64.956078 2.325557
v 115.966644 64.956078 2.325557
v 117.245323 64.940285 1.226925
v 117.536804 64.940285 -0.426121
v 116.697533 64.940285 -1.879785
v 115.120209 64.940285 -2.453882
v 84.911949 19.589567 21.942225
v 86.864342 20.468273 20.754658
v 85.872208 23.728277 16.886341
v 83.018211 20.468271 14.092965
v 80.221954 19.873524 20.148510
v 99.177437 12.607446 54.923210
v 98.490494 12.878715 52.758507
v 96.437744 13.458727 51.329636
v 93.946793 12.878715 51.104733
v 92.020668 12.528672 52.314342
v 106.815804 20.468275 34.061508
v 103.569267 23.728281 31.735943
v 99.587440 20.468275 31.430603
v 101.414879 19.009556 37.655083
v 163.397400 -0.000002 -12.418035
v 163.027283 3.275801 -8.447313
v 164.733154 -0.000001 -4.842638
v 160.084854 0.000004 21.519218
v 157.249008 3.275806 24.323065
v 156.014496 2.158608 26.447634
v 157.017273 1.748441 28.403179
v 137.467468 16.251572 52.070030
v 133.719330 18.452280 51.100636
v 131.062988 17.392572 54.923210
v 126.671158 23.728281 31.735943
v 123.424622 20.468275 34.061508
v 124.156891 19.589569 36.226212
v 128.908890 20.016003 37.884083
v 130.877213 18.309671 33.163876
v 34.938782 20.468262 -41.638424
v 37.370712 20.468264 -40.685692
v 39.529194 19.287697 -41.379856
v 41.662655 20.468262 -44.773819
v 24.844591 17.155556 -29.608633
v 21.708666 23.728271 -25.871384
v 25.345928 20.468266 -24.222593
v 25.930353 20.468264 -30.902597
v 33.259602 23.728273 -5.864570
v 34.986088 20.468269 -2.263532
v 37.276371 20.123095 -2.534232
v 39.239819 18.516533 -6.919042
v 35.895798 20.468267 -10.382442
v 33.650341 20.468267 -9.838928
v 51.311691 16.329472 25.287130
v 49.037956 17.552876 25.463947
v 47.110519 17.802450 27.199266
v 47.508377 16.679041 31.832899
v -1.577318 64.940285 -1.879785
v -2.416591 64.940285 -0.426121
v -2.125115 64.940285 1.226925
v -0.846437 64.956078 2.325557
v 0.846437 64.956078 2.325557
v 2.143255 64.956078 1.237398
v 2.437219 64.956078 -0.429758
v 1.590782 64.956078 -1.895830
v -0.000000 64.940285 -2.453882
v -34.892933 -0.000006 -35.600258
v -31.269129 3.275796 -37.265099
v -29.000319 -0.000007 -40.544746
v -3.846129 -0.000008 -49.700127
v -0.000000 3.275794 -48.646130
v 3.846129 -0.000008 -49.700127
v 34.898247 19.873524 20.148510
v 32.101997 20.468271 14.092965
v 29.248005 23.728277 16.886341
v 28.255867 20.468273 20.754658
v 30.208258 19.589567 21.942225
v 23.099545 12.528672 52.314342
v 21.173416 12.878715 51.104733
v 18.682463 13.458727 51.329636
v 16.629715 12.878715 52.758507
v 15.942775 12.607447 54.923210
v 11.550939 23.728281 31.735943
v 8.304412 20.468275 34.061508
v 13.705331 19.009556 37.655083
v 15.532770 20.468275 31.430603
v -49.612946 -0.000001 -4.842638
v -47.907089 3.275801 -8.447313
v -48.277195 -0.000002 -12.418034
v -41.897057 1.748441 28.403179
v -40.894279 2.158608 26.447634
v -42.128788 3.275806 24.323065
v -44.964634 0.000004 21.519218
v -15.942775 17.392572 54.923210
v -18.599110 18.452280 51.100636
v -22.347260 16.251572 52.070030
v -9.036676 19.589569 36.226212
v -8.304412 20.468275 34.061508
v -11.550939 23.728281 31.735943
v -15.756997 18.309671 33.163876
v -13.788680 20.016003 37.884083
vn -0.5331 0.8430 -0.0715
vn -0.0099 0.9847 -0.1738
vn -0.0106 0.9825 -0.1857
vn -0.2210 0.6457 -0.7309
vn -0.2114 0.6587 -0.7221
vn -0.0532 0.9493 0.3098
vn -0.1157 0.9511 0.2865
vn -0.1281 0.9826 0.1344
vn -0.0694 0.9949 0.0728
vn -0.2337 0.9709 -0.0531
vn -0.2489 0.9668 -0.0571
vn -0.0000 1.0000 0.0084
vn 0.2489 0.9668 -0.0571
vn 0.2337 0.9709 -0.0531
vn -0.1208 0.9649 0.2332
vn -0.2234 0.9470 0.2310
vn -0.4402 0.8949 0.0739
vn -0.4510 0.8925 0.0030
vn 0.3673 0.5186 -0.7721
vn 0.5478 0.5232 -0.6528
vn 0.6966 0.5186 -0.4958
vn -0.2076 0.5168 -0.8306
vn 0.0036 0.5219 -0.8530
vn 0.2149 0.5186 -0.8275
vn 0.0035 1.0000 -0.0020
vn -0.3962 0.8722 0.2870
vn -0.1283 0.9731 0.1912
vn -0.1151 0.9714 0.2075
vn -0.0917 0.9674 0.2362
vn -0.0656 0.9698 0.2350
vn -0.0506 0.9709 0.2342
vn -0.2051 0.8003 0.5634
vn 0.7777 0.5186 -0.3554
vn 0.8392 0.5232 -0.1480
vn 0.8523 0.5186 0.0680
vn 0.7859 0.5942 0.1714
vn 0.7576 0.6178 0.2108
vn 0.6320 0.7662 0.1162
vn 0.5959 0.8020 0.0416
vn 0.4954 0.8671 0.0531
vn 0.2509 0.9516 0.1774
vn -0.0312 0.9686 0.2468
vn 0.2198 0.8794 0.4223
vn 0.0694 0.9949 0.0728
vn 0.1281 0.9826 0.1344
vn 0.1157 0.9511 0.2865
vn 0.0532 0.9493 0.3098
vn 0.2114 0.6587 -0.7221
vn 0.2210 0.6457 -0.7309
vn 0.0106 0.9825 -0.1857
vn 0.0099 0.9847 -0.1738
vn 0.5331 0.8430 -0.0715
vn 0.4510 0.8925 0.0030
vn 0.4402 0.8949 0.0739
vn 0.2234 0.9470 0.2310
vn 0.1208 0.9649 0.2332
vn -0.0035 1.0000 -0.0020
vn -0.6966 0.5186 -0.4958
vn -0.5478 0.5232 -0.6528
vn -0.3673 0.5186 -0.7721
vn -0.2149 0.5186 -0.8275
vn -0.0036 0.5219 -0.8530
vn 0.2076 0.5168 -0.8306
vn 0.3962 0.8722 0.2870
vn 0.0506 0.9709 0.2342
vn 0.0656 0.9698 0.2350
vn 0.0917 0.9674 0.2362
vn 0.1151 0.9714 0.2075
vn 0.1283 0.9731 0.1912
vn 0.2051 0.8003 0.5634
vn -0.8523 0.5186 0.0680
vn -0.8392 0.5232 -0.1480
vn -0.7777 0.5186 -0.3554
vn -0.5959 0.8020 0.0416
vn -0.6320 0.7662 0.1162
vn -0.7576 0.6178 0.2108
vn -0.7859 0.5942 0.1714
vn 0.0312 0.9686 0.2468
vn -0.2509 0.9516 0.1774
vn -0.4954 0.8671 0.0531
vn -0.2198 0.8794 0.4223
vn -0.7050 0.5807 -0.4070
vn -0.8017 0.5807 0.1414
vn -0.0000 1.0000 -0.0000
vn -0.4856 0.8739 0.0236
vn -0.4638 0.8785 -0.1142
vn -0.1521 0.9880 0.0268
vn -0.2703 0.5738 -0.7731
vn -0.0000 0.9445 0.3285
vn 0.4856 0.8739 0.0236
vn 0.4638 0.8785 -0.1142
vn -0.0303 0.9720 0.2331
vn 0.2797 0.5756 -0.7684
vn 0.7082 0.5756 -0.4089
vn -0.5233 0.5807 0.6236
vn -0.0000 0.5807 0.8141
vn 0.8053 0.5756 0.1420
vn 0.5359 0.5781 0.6154
vn -0.2418 0.9266 0.2881
vn -0.0000 0.9266 0.3761
vn -0.1463 0.9748 0.1686
vn 0.5214 0.8486 -0.0894
vn 0.7050 0.5807 -0.4070
vn 0.2703 0.5738 -0.7731
vn 0.8017 0.5807 0.1414
vn 0.1521 0.9880 0.0268
vn 0.0303 0.9720 0.2331
vn -0.2797 0.5756 -0.7684
vn -0.7082 0.5756 -0.4089
vn -0.8053 0.5756 0.1420
vn 0.5233 0.5807 0.6236
vn -0.5359 0.5781 0.6154
vn 0.2418 0.9266 0.2881
vn 0.1463 0.9748 0.1686
vn -0.5214 0.8486 -0.0894
vt 0.956726 0.739742
vt 0.956886 0.739742
vt 0.972822 0.728324
vt 0.989090 0.737722
vt 0.989745 0.739742
vt 0.973390 0.758813
vt 0.707655 0.579391
vt 0.711492 0.564650
vt 0.735372 0.568288
vt 0.714784 0.576535
vt 0.604370 0.610000
vt 0.618376 0.602511
vt 0.632547 0.600979
vt 0.648513 0.603081
vt 0.504557 0.524907
vt 0.523260 0.532216
vt 0.512864 0.541084
vt 0.487135 0.541084
vt 0.476739 0.532216
vt 0.495443 0.524907
vt 0.565991 0.440953
vt 0.568604 0.451178
vt 0.555950 0.455007
vt 0.541022 0.455398
vt 0.653351 0.620000
vt 0.640739 0.639164
vt 0.627866 0.620000
vt 0.766702 0.620000
vt 0.754506 0.639164
vt 0.741913 0.620000
vt 0.941434 1.000000
vt 1.000000 1.000000
vt 1.058151 1.000000
vt 1.116599 1.000000
vt 1.176463 1.000000
vt 1.240589 0.999908
vt 1.438974 0.999908
vt 0.814937 0.999908
vt 0.881990 0.999908
vt 0.679570 0.462779
vt 0.692388 0.465399
vt 0.685874 0.473935
vt 0.667137 0.480100
vt 0.648779 0.466737
vt 0.773226 0.390000
vt 0.768716 0.394777
vt 0.755239 0.397930
vt 0.738886 0.398426
vt 0.726240 0.395757
vt 0.200306 0.739742
vt 0.183100 0.758813
vt 0.166592 0.739742
vt 0.184408 0.731208
vt 0.537494 0.620000
vt 0.524609 0.639164
vt 0.511747 0.620000
vt 0.421542 0.620000
vt 0.408696 0.639164
vt 0.400404 0.632628
vt 0.397061 0.630229
vt 0.305488 0.715073
vt 0.296216 0.727948
vt 0.285928 0.721748
vt 0.953727 0.441167
vt 0.932413 0.436035
vt 0.937221 0.431258
vt 0.968419 0.427600
vt 0.981341 0.438016
vt 0.351487 0.603081
vt 0.367453 0.600979
vt 0.381624 0.602511
vt 0.395630 0.610000
vt 0.285216 0.576535
vt 0.264628 0.568288
vt 0.288508 0.564650
vt 0.292345 0.579391
vt 0.538357 0.138813
vt 0.522003 0.119742
vt 0.522657 0.117722
vt 0.538925 0.108324
vt 0.554861 0.119742
vt 0.555021 0.119742
vt 0.458978 0.455398
vt 0.444050 0.455007
vt 0.431396 0.451178
vt 0.434008 0.440953
vt 0.696790 0.379908
vt 1.072824 0.379908
vt 0.271177 0.379908
vt 0.335293 0.380000
vt 0.395154 0.380000
vt 0.453599 0.380000
vt 0.511747 0.380000
vt 0.570311 0.380000
vt 0.629750 0.379908
vt 0.883881 0.000000
vt 0.871008 0.019164
vt 0.858395 0.000000
vt 0.769833 0.000000
vt 0.757240 0.019164
vt 0.745044 0.000000
vt 0.351220 0.466737
vt 0.332863 0.480100
vt 0.314126 0.473935
vt 0.307612 0.465399
vt 0.320430 0.462779
vt 0.273760 0.395757
vt 0.261114 0.398426
vt 0.244761 0.397930
vt 0.231284 0.394777
vt 0.226774 0.390000
vt 0.328648 0.138813
vt 0.311442 0.119742
vt 0.327340 0.111208
vt 0.345156 0.119742
vt 1.000000 0.000000
vt 0.987138 0.019164
vt 0.974254 0.000000
vt 0.114686 0.010229
vt 0.111344 0.012628
vt 0.103051 0.019164
vt 0.090206 -0.000000
vt 0.225820 0.101748
vt 0.215532 0.107948
vt 0.206260 0.095073
vt 0.062779 0.431258
vt 0.067587 0.436035
vt 0.046273 0.441167
vt 0.018659 0.438016
vt 0.031581 0.427600
vt 0.867546 0.758813
vt 0.884118 0.739742
vt 1.061305 0.739742
vt 1.077667 0.758813
vt 0.642230 0.534109
vt 0.656972 0.532910
vt 0.620276 0.526466
vt 0.633167 0.516791
vt 0.648203 0.516193
vt 0.866418 0.720362
vt 0.864495 0.620000
vt 0.357770 0.534109
vt 0.379724 0.526466
vt 0.366833 0.516791
vt 0.438974 0.999908
vt 0.116599 1.000000
vt 0.058151 1.000000
vt 0.077667 0.758813
vt 0.094259 0.739742
vt 0.275070 0.739742
vt 0.292176 0.758813
vt 0.176463 1.000000
vt 0.240589 0.999908
vt 0.308169 0.727113
vt 0.787915 0.428105
vt 0.775918 0.441841
vt 0.823373 0.436035
vt 0.982561 0.390000
vt 1.000000 0.398435
vt 0.293908 0.737096
vt 0.343028 0.532910
vt 0.627628 0.119742
vt 0.644201 0.138813
vt 0.645329 0.100362
vt 0.647252 0.000000
vt 0.434081 0.138813
vt 0.450443 0.119742
vt 0.351797 0.516193
vt 1.090206 -0.000000
vt 1.103052 0.019164
vt 1.271177 0.379908
vt 0.417489 0.119742
vt 0.203579 0.107113
vt 0.219573 0.138813
vt 0.236678 0.119742
vt 0.224082 0.441841
vt 0.212085 0.428105
vt 0.176627 0.436035
vt 0.000000 0.398435
vt 0.017439 0.390000
vt 0.217840 0.117096
s 1
f 4/1/1 5/2/1 6/3/1 7/4/1 8/5/1 9/6/1
f 10/7/2 11/8/3 12/9/4 13/10/5
f 14/11/6 15/12/7 16/13/8 17/14/9
f 18/15/10 19/16/11 20/17/12 21/18/12 22/19/13 23/20/14
f 24/21/15 25/22/16 26/23/17 27/24/18
f 28/25/19 29/26/20 30/27/21
f 31/28/22 32/29/23 33/30/24
f 34/31/25 35/32/25 36/33/25 37/34/25 38/35/25 39/36/25 40/37/25 41/38/25 42/39/25
f 43/40/26 44/41/26 45/42/26 46/43/26 47/44/26
f 48/45/27 49/46/28 50/47/29 51/48/30 52/49/31
f 53/50/32 54/51/32 55/52/32 56/53/32
f 57/54/33 58/55/34 59/56/35
f 60/57/36 61/58/37 62/59/38 63/60/39
f 64/61/40 65/62/41 66/63/42
f 67/64/43 68/65/43 69/66/43 70/67/43 71/68/43
f 72/69/44 73/70/45 74/71/46 75/72/47
f 76/73/48 77/74/49 78/75/50 79/76/51
f 80/77/52 81/78/52 82/79/52 83/80/52 84/81/52 85/82/52
f 86/83/53 87/84/54 88/85/55 89/86/56
f 90/87/57 91/88/57 92/89/57 93/90/57 94/91/57 95/92/57 96/93/57 97/94/57 98/95/57
f 99/96/58 100/97/59 101/98/60
f 102/99/61 103/100/62 104/101/63
f 105/102/64 106/103/64 107/104/64 108/105/64 109/106/64
f 110/107/65 111/108/66 112/109/67 113/110/68 114/111/69
f 115/112/70 116/113/70 117/114/70 118/115/70
f 119/116/71 120/117/72 121/118/73
f 122/119/74 123/120/75 124/121/76 125/122/77
f 126/123/78 127/124/79 128/125/80
f 129/126/81 130/127/81 131/128/81 132/129/81 133/130/81
f 12/131/82 11/132/82 4/1/82 9/6/82 35/32/82 34/31/82
f 46/133/83 45/134/83 36/33/83 35/32/83 9/6/83 8/5/83
f 5/135/84 4/136/84 11/8/3 10/7/2 17/14/9 16/13/8
f 16/13/85 15/12/85 20/17/85 19/16/85 6/137/85 5/135/85
f 19/16/11 18/15/10 27/24/18 26/23/17 7/138/86 6/137/86
f 26/23/87 25/22/87 47/44/87 46/43/87 8/139/87 7/138/87
f 13/140/5 12/131/4 34/31/88 42/39/88 32/29/23 31/28/22 1/141/88
f 21/18/89 20/17/89 15/12/7 14/11/6 75/72/47 74/71/46
f 22/19/90 21/18/90 74/71/90 73/70/90 84/142/90 83/143/90
f 87/84/54 86/83/53 23/20/14 22/19/13 83/143/91 82/144/91
f 25/22/16 24/21/15 52/49/31 51/48/30 43/40/92 47/44/92
f 29/26/20 28/25/19 33/30/24 32/29/23 42/39/93 41/38/93
f 58/55/34 57/54/33 30/27/21 29/26/20 41/38/94 40/145/94
f 55/52/95 54/51/95 37/146/95 36/147/95 45/148/95 44/149/95
f 68/150/96 67/151/96 38/152/96 37/146/96 54/51/96 53/50/96
f 61/58/37 60/57/36 59/56/35 58/55/34 40/145/97 39/153/97
f 39/153/98 38/152/98 67/151/98 71/154/98 62/59/98 61/58/98
f 44/41/99 43/40/99 51/48/99 50/47/99 56/155/99 55/156/99
f 69/66/100 68/65/100 53/157/100 56/155/100 50/47/100 49/46/100
f 70/67/101 69/66/101 49/46/28 48/45/27 66/158/42 65/159/41
f 65/62/41 64/61/40 63/60/39 62/59/38 71/154/102 70/160/102
f 79/76/51 78/75/50 85/161/84 84/142/84 73/70/45 72/69/44
f 80/77/103 85/82/103 78/162/103 77/163/103 97/94/103 96/93/103
f 104/101/63 103/100/62 98/95/104 97/94/104 77/163/49 76/164/48 2/165/104
f 81/78/105 80/77/105 96/93/105 95/92/105 107/166/105 106/167/105
f 106/103/106 105/102/106 88/85/106 87/84/106 82/144/106 81/168/106
f 111/108/66 110/107/65 89/86/56 88/85/55 105/102/107 109/106/107
f 101/98/60 100/97/59 90/87/108 98/95/108 103/100/62 102/99/61
f 121/118/73 120/117/72 91/88/109 90/87/109 100/97/59 99/96/58
f 125/169/77 124/170/76 92/171/110 91/88/110 120/117/72 119/116/71
f 108/172/111 107/166/111 95/92/111 94/91/111 115/112/111 118/115/111
f 132/173/112 131/174/112 93/90/112 92/89/112 124/121/112 123/120/112
f 116/113/96 115/112/96 94/91/96 93/90/96 131/174/96 130/175/96
f 112/109/113 111/108/113 109/106/113 108/105/113 118/176/113 117/177/113
f 117/177/100 116/178/100 130/127/100 129/126/100 113/110/100 112/109/100
f 114/111/69 113/110/68 129/126/114 133/130/114 127/179/79 126/180/78
f 123/120/75 122/119/74 128/125/80 127/124/79 133/181/115 132/173/115
