# Blender 5.2.1 LTS
# www.blender.org
o 2teepee
v 79.423386 20.468267 -6.294317
v 91.820763 20.468266 -27.767204
v 77.550522 20.468262 -44.773819
v 57.560104 8.424416 -10.149401
v 64.502708 17.207703 29.224031
v 147.966660 -0.000006 -39.144875
v 115.120209 -0.000008 -51.100002
v 115.120209 68.216087 -0.000011
v 82.273758 -0.000006 -39.144875
v 83.728951 20.468273 18.123749
v 95.129791 12.000010 54.923210
v 102.722832 20.468275 34.061508
v 165.443878 -0.000001 -8.873423
v 159.374115 0.000004 25.550001
v 135.110626 18.000010 54.923210
v 127.517593 20.468275 34.061508
v 37.569691 20.468262 -44.773819
v 23.299446 20.468266 -27.767204
v 35.696823 20.468267 -6.294317
v 50.617508 17.207703 29.224031
v -0.000000 68.216087 -0.000011
v -32.846447 -0.000006 -39.144875
v 0.000000 -0.000008 -51.100002
v 32.846447 -0.000006 -39.144875
v 31.391260 20.468273 18.123749
v 19.990416 12.000010 54.923210
v 12.397377 20.468275 34.061508
v -50.323677 -0.000001 -8.873423
v -44.253902 0.000004 25.550001
v -19.990416 18.000010 54.923210
v -12.397377 20.468275 34.061508
v -50.323677 -0.000001 -8.873423
vn -0.0000 1.0000 -0.0000
vn -0.4856 0.8739 0.0236
vn -0.4638 0.8785 -0.1142
vn 0.2797 0.5756 -0.7684
vn -0.7050 0.5807 -0.4070
vn -0.1521 0.9880 0.0268
vn -0.0303 0.9720 0.2331
vn -0.8017 0.5807 0.1414
vn -0.2418 0.9266 0.2881
vn 0.7082 0.5756 -0.4089
vn -0.5233 0.5807 0.6236
vn 0.8053 0.5756 0.1420
vn 0.5214 0.8486 -0.0894
vn -0.1463 0.9748 0.1686
vn -0.0000 0.9266 0.3761
vn -0.0000 0.5807 0.8141
vn 0.2702 0.5738 -0.7732
vn 0.5359 0.5781 0.6154
vn -0.0000 0.9445 0.3285
vn 0.4856 0.8739 0.0236
vn 0.4638 0.8785 -0.1142
vn -0.2797 0.5756 -0.7684
vn -0.2702 0.5738 -0.7732
vn 0.7050 0.5807 -0.4070
vn 0.1521 0.9880 0.0268
vn 0.0303 0.9720 0.2331
vn 0.8017 0.5807 0.1414
vn 0.2418 0.9266 0.2881
vn -0.7082 0.5756 -0.4089
vn 0.5233 0.5807 0.6236
vn -0.8053 0.5756 0.1420
vn -0.5214 0.8486 -0.0894
vn 0.1463 0.9748 0.1686
vn -0.5359 0.5781 0.6154
vt 0.577609 0.253989
vt 0.594309 0.325424
vt 0.550089 0.360469
vt 0.499206 0.251566
vt 0.549060 0.149079
vt 0.968845 0.159942
vt 0.999150 0.253800
vt 0.751881 0.278918
vt 0.603397 0.185489
vt 0.621613 0.078099
vt 0.656343 0.133533
vt 0.904832 0.085843
vt 0.816945 0.043517
vt 0.713005 0.041155
vt 0.725343 0.106559
vt -0.000737 0.253799
vt 0.246532 0.278918
vt 0.077296 0.332123
vt 0.006307 0.351656
vt 0.448323 0.360469
vt 0.404103 0.325424
vt 0.420803 0.253989
vt 0.449353 0.149079
vt 0.029567 0.159942
vt 0.921117 0.332123
vt 0.992106 0.351656
vt 0.395016 0.185489
vt 0.376800 0.078099
vt 0.342069 0.133533
vt 0.093580 0.085843
vt 0.181468 0.043517
vt 0.285408 0.041155
vt 0.273069 0.106559
s 1
f 1/1/1 2/2/1 3/3/1
f 3/3/2 4/4/2 1/1/2
f 4/4/3 5/5/3 1/1/3
f 6/6/4 7/7/4 8/8/4
f 2/2/5 1/1/5 8/8/5
f 5/5/6 10/9/6 1/1/6
f 5/5/7 11/10/7 10/9/7
f 10/9/8 8/8/8 1/1/8
f 10/9/9 11/10/9 12/11/9
f 13/12/10 6/6/10 8/8/10
f 12/11/11 8/8/11 10/9/11
f 14/13/12 13/12/12 8/8/12
f 15/14/13 14/13/13 16/15/13
f 16/15/14 11/10/14 15/14/14
f 16/15/15 12/11/15 11/10/15
f 16/15/16 8/8/16 12/11/16
f 23/16/17 21/17/17 18/18/17 24/19/17
f 8/8/18 16/15/18 14/13/18
f 4/4/19 3/3/19 17/20/19
f 18/21/1 19/22/1 17/20/1
f 4/4/20 17/20/20 19/22/20
f 20/23/21 4/4/21 19/22/21
f 22/24/22 21/17/22 23/16/22
f 2/25/23 8/8/23 7/7/23 9/26/23
f 19/22/24 18/21/24 21/17/24
f 25/27/25 20/23/25 19/22/25
f 26/28/26 20/23/26 25/27/26
f 19/22/27 21/17/27 25/27/27
f 26/28/28 25/27/28 27/29/28
f 28/30/29 21/17/29 22/24/29
f 25/27/30 21/17/30 27/29/30
f 29/31/31 21/17/31 28/30/31
f 29/31/32 30/32/32 31/33/32
f 26/28/33 31/33/33 30/32/33
f 27/29/15 31/33/15 26/28/15
f 27/29/16 21/17/16 31/33/16
f 31/33/34 21/17/34 29/31/34
