# Blender 5.2.1 LTS
# www.blender.org
o 2teepee
v 79.423386 20.468267 -6.294317
v 91.820763 20.468266 -27.767204
v 77.550522 20.468262 -44.773819
v 57.560104 8.424416 -10.149401
v 64.502708 17.207703 29.224031
v 147.966660 -0.000006 -39.144875
v 115.120209 -0.000008 -51.100002
v 115.120209 68.216087 -0.000011
v 82.273758 -0.000006 -39.144875
v 83.728951 20.468273 18.123749
v 95.129791 12.000010 54.923210
v 102.722832 20.468275 34.061508
v 165.443878 -0.000001 -8.873423
v 159.374115 0.000004 25.550001
v 135.110626 18.000010 54.923210
v 127.517593 20.468275 34.061508
v 37.569691 20.468262 -44.773819
v 23.299446 20.468266 -27.767204
v 35.696823 20.468267 -6.294317
v 50.617508 17.207703 29.224031
v -0.000000 68.216087 -0.000011
v -32.846447 -0.000006 -39.144875
v 0.000000 -0.000008 -51.100002
v 32.846447 -0.000006 -39.144875
v 31.391260 20.468273 18.123749
v 19.990416 12.000010 54.923210
v 12.397377 20.468275 34.061508
v -50.323677 -0.000001 -8.873423
v -44.253902 0.000004 25.550001
v -19.990416 18.000010 54.923210
v -12.397377 20.468275 34.061508
v -50.323677 -0.000001 -8.873423
vn -0.0000 1.0000 -0.0000
vn -0.4856 0.8739 0.0236
vn -0.4638 0.8785 -0.1142
vn 0.2797 0.5756 -0.7684
vn -0.7050 0.5807 -0.4070
vn -0.1521 0.9880 0.0268
vn -0.0303 0.9720 0.2331
vn -0.8017 0.5807 0.1414
vn -0.2418 0.9266 0.2881
vn 0.7082 0.5756 -0.4089
vn -0.5233 0.5807 0.6236
vn 0.8053 0.5756 0.1420
vn 0.5214 0.8486 -0.0894
vn -0.1463 0.9748 0.1686
vn -0.0000 0.9266 0.3761
vn -0.0000 0.5807 0.8141
vn 0.2702 0.5738 -0.7732
vn 0.5359 0.5781 0.6154
vn -0.0000 0.9445 0.3285
vn 0.4856 0.8739 0.0236
vn 0.4638 0.8785 -0.1142
vn -0.2797 0.5756 -0.7684
vn -0.2702 0.5738 -0.7732
vn 0.7050 0.5807 -0.4070
vn 0.1521 0.9880 0.0268
vn 0.0303 0.9720 0.2331
vn 0.8017 0.5807 0.1414
vn 0.2418 0.9266 0.2881
vn -0.7082 0.5756 -0.4089
vn 0.5233 0.5807 0.6236
vn -0.8053 0.5756 0.1420
vn -0.5214 0.8486 -0.0894
vn 0.1463 0.9748 0.1686
vn -0.5359 0.5781 0.6154
vt 0.239407 0.828269
vt 0.264773 0.936771
vt 0.197607 0.990000
vt 0.120322 0.824589
vt 0.196044 0.668924
vt 0.833649 0.685423
vt 0.879678 0.827982
vt 0.504105 0.866133
vt 0.278576 0.724226
vt 0.306243 0.561112
vt 0.358995 0.645310
vt 0.736420 0.572876
vt 0.602930 0.508588
vt 0.445057 0.505000
vt 0.463798 0.604341
vt 0.081679 0.332981
vt 0.457252 0.371133
vt 0.200202 0.451946
vt 0.092379 0.481614
vt 0.841035 0.329589
vt 0.918321 0.495000
vt 0.763750 0.495000
vt 0.696585 0.441771
vt 0.721950 0.333269
vt 0.765314 0.173924
vt 0.127708 0.190422
vt 0.761155 0.946946
vt 0.868979 0.976614
vt 0.682782 0.229226
vt 0.655115 0.066113
vt 0.602362 0.150310
vt 0.224937 0.077876
vt 0.358427 0.013587
vt 0.516300 0.010000
vt 0.497559 0.109341
s 1
f 1/1/1 2/2/1 3/3/1
f 3/3/2 4/4/2 1/1/2
f 4/4/3 5/5/3 1/1/3
f 6/6/4 7/7/4 8/8/4
f 2/2/5 1/1/5 8/8/5
f 5/5/6 10/9/6 1/1/6
f 5/5/7 11/10/7 10/9/7
f 10/9/8 8/8/8 1/1/8
f 10/9/9 11/10/9 12/11/9
f 13/12/10 6/6/10 8/8/10
f 12/11/11 8/8/11 10/9/11
f 14/13/12 13/12/12 8/8/12
f 15/14/13 14/13/13 16/15/13
f 16/15/14 11/10/14 15/14/14
f 16/15/15 12/11/15 11/10/15
f 16/15/16 8/8/16 12/11/16
f 23/16/17 21/17/17 18/18/17 24/19/17
f 8/8/18 16/15/18 14/13/18
f 4/20/19 3/21/19 17/22/19
f 18/23/1 19/24/1 17/22/1
f 4/20/20 17/22/20 19/24/20
f 20/25/21 4/20/21 19/24/21
f 22/26/22 21/17/22 23/16/22
f 2/27/23 8/8/23 7/7/23 9/28/23
f 19/24/24 18/23/24 21/17/24
f 25/29/25 20/25/25 19/24/25
f 26/30/26 20/25/26 25/29/26
f 19/24/27 21/17/27 25/29/27
f 26/30/28 25/29/28 27/31/28
f 28/32/29 21/17/29 22/26/29
f 25/29/30 21/17/30 27/31/30
f 29/33/31 21/17/31 28/32/31
f 29/33/32 30/34/32 31/35/32
f 26/30/33 31/35/33 30/34/33
f 27/31/15 31/35/15 26/30/15
f 27/31/16 21/17/16 31/35/16
f 31/35/34 21/17/34 29/33/34
