# Blender 5.2.1 LTS
# www.blender.org
o Teepee_B
v 79.423386 20.468267 -6.294317
v 91.820763 20.468266 -27.767204
v 77.550522 20.468262 -44.773819
v 57.560104 8.424416 -10.149401
v 64.502708 17.207703 29.224031
v 147.966660 -0.000006 -39.144875
v 115.120209 -0.000008 -51.100002
v 115.120209 68.216087 -0.000011
v 82.273758 -0.000006 -39.144875
v 83.728951 20.468273 18.123749
v 95.129791 12.000010 54.923210
v 102.722832 20.468275 34.061508
v 165.443878 -0.000001 -8.873423
v 159.374115 0.000004 25.550001
v 135.110626 18.000010 54.923210
v 127.517593 20.468275 34.061508
v -50.323677 -0.000001 -8.873423
vn -0.0000 1.0000 -0.0000
vn -0.4856 0.8739 0.0236
vn -0.4638 0.8785 -0.1142
vn 0.2797 0.5756 -0.7684
vn -0.7050 0.5807 -0.4070
vn -0.1521 0.9880 0.0268
vn -0.0303 0.9720 0.2331
vn -0.8017 0.5807 0.1414
vn -0.2418 0.9266 0.2881
vn 0.7082 0.5756 -0.4089
vn -0.5233 0.5807 0.6236
vn 0.8053 0.5756 0.1420
vn 0.5214 0.8486 -0.0894
vn -0.1463 0.9748 0.1686
vn -0.0000 0.9266 0.3761
vn -0.0000 0.5807 0.8141
vn 0.5359 0.5781 0.6154
vn -0.2702 0.5738 -0.7732
vt 0.160256 0.605301
vt 0.193325 0.746759
vt 0.105760 0.816156
vt 0.005000 0.600504
vt 0.103721 0.397557
vt 0.934990 0.419068
vt 0.995000 0.604927
vt 0.505352 0.654666
vt 0.211321 0.469657
vt 0.247392 0.257000
vt 0.316167 0.366771
vt 0.808230 0.272336
vt 0.634194 0.188521
vt 0.428369 0.183844
vt 0.452802 0.313358
vt 0.840477 0.760025
vt 0.981051 0.798704
s 1
f 1/1/1 2/2/1 3/3/1
f 3/3/2 4/4/2 1/1/2
f 4/4/3 5/5/3 1/1/3
f 6/6/4 7/7/4 8/8/4
f 2/2/5 1/1/5 8/8/5
f 5/5/6 10/9/6 1/1/6
f 5/5/7 11/10/7 10/9/7
f 10/9/8 8/8/8 1/1/8
f 10/9/9 11/10/9 12/11/9
f 13/12/10 6/6/10 8/8/10
f 12/11/11 8/8/11 10/9/11
f 14/13/12 13/12/12 8/8/12
f 15/14/13 14/13/13 16/15/13
f 16/15/14 11/10/14 15/14/14
f 16/15/15 12/11/15 11/10/15
f 16/15/16 8/8/16 12/11/16
f 8/8/17 16/15/17 14/13/17
f 2/16/18 8/8/18 7/7/18 9/17/18
