# Blender 5.2.1 LTS
# www.blender.org
o Teepee_A
v 77.550522 20.468262 -44.773819
v 57.560104 8.424416 -10.149401
v 37.569691 20.468262 -44.773819
v 23.299446 20.468266 -27.767204
v 35.696823 20.468267 -6.294317
v 50.617508 17.207703 29.224031
v -0.000000 68.216087 -0.000011
v -32.846447 -0.000006 -39.144875
v 0.000000 -0.000008 -51.100002
v 32.846447 -0.000006 -39.144875
v 31.391260 20.468273 18.123749
v 19.990416 12.000010 54.923210
v 12.397377 20.468275 34.061508
v -50.323677 -0.000001 -8.873423
v -44.253902 0.000004 25.550001
v -19.990416 18.000010 54.923210
v -12.397377 20.468275 34.061508
v -50.323677 -0.000001 -8.873423
vn 0.2702 0.5738 -0.7732
vn -0.0000 0.9445 0.3285
vn -0.0000 1.0000 -0.0000
vn 0.4856 0.8739 0.0236
vn 0.4638 0.8785 -0.1142
vn -0.2797 0.5756 -0.7684
vn 0.7050 0.5807 -0.4070
vn 0.1521 0.9880 0.0268
vn 0.0303 0.9720 0.2331
vn 0.8017 0.5807 0.1414
vn 0.2418 0.9266 0.2881
vn -0.7082 0.5756 -0.4089
vn 0.5233 0.5807 0.6236
vn -0.8053 0.5756 0.1420
vn -0.5214 0.8486 -0.0894
vn 0.1463 0.9748 0.1686
vn -0.0000 0.9266 0.3761
vn -0.0000 0.5807 0.8141
vn -0.5359 0.5781 0.6154
vt 0.005000 0.595234
vt 0.449417 0.640379
vt 0.145249 0.736005
vt 0.017661 0.771111
vt 0.903548 0.591220
vt 0.995000 0.786951
vt 0.812096 0.786951
vt 0.732619 0.723965
vt 0.762634 0.595574
vt 0.813947 0.407020
vt 0.059466 0.426544
vt 0.716286 0.472459
vt 0.683547 0.279447
vt 0.621126 0.379078
vt 0.174517 0.293366
vt 0.332477 0.217294
vt 0.519288 0.213049
vt 0.497112 0.330599
s 1
f 9/1/1 7/2/1 4/3/1 10/4/1
f 2/5/2 1/6/2 3/7/2
f 4/8/3 5/9/3 3/7/3
f 2/5/4 3/7/4 5/9/4
f 6/10/5 2/5/5 5/9/5
f 8/11/6 7/2/6 9/1/6
f 5/9/7 4/8/7 7/2/7
f 11/12/8 6/10/8 5/9/8
f 12/13/9 6/10/9 11/12/9
f 5/9/10 7/2/10 11/12/10
f 12/13/11 11/12/11 13/14/11
f 14/15/12 7/2/12 8/11/12
f 11/12/13 7/2/13 13/14/13
f 15/16/14 7/2/14 14/15/14
f 15/16/15 16/17/15 17/18/15
f 12/13/16 17/18/16 16/17/16
f 13/14/17 17/18/17 12/13/17
f 13/14/18 7/2/18 17/18/18
f 17/18/19 7/2/19 15/16/19
