# Blender 5.2.1 LTS
# www.blender.org
o 2teepee
v 79.423386 20.468267 -6.294317
v 91.820763 20.468266 -27.767204
v 77.550522 20.468262 -44.773819
v 57.560104 8.424416 -10.149401
v 64.502708 17.207703 29.224031
v 147.966660 -0.000006 -39.144875
v 115.120209 -0.000008 -51.100002
v 115.120209 68.216087 -0.000011
v 82.273758 -0.000006 -39.144875
v 83.728951 20.468273 18.123749
v 95.129791 12.000010 54.923210
v 102.722832 20.468275 34.061508
v 165.443878 -0.000001 -8.873423
v 159.374115 0.000004 25.550001
v 135.110626 18.000010 54.923210
v 127.517593 20.468275 34.061508
v 37.569691 20.468262 -44.773819
v 23.299446 20.468266 -27.767204
v 35.696823 20.468267 -6.294317
v 50.617508 17.207703 29.224031
v -0.000000 68.216087 -0.000011
v -32.846447 -0.000006 -39.144875
v 0.000000 -0.000008 -51.100002
v 32.846447 -0.000006 -39.144875
v 31.391260 20.468273 18.123749
v 19.990416 12.000010 54.923210
v 12.397377 20.468275 34.061508
v -50.323677 -0.000001 -8.873423
v -44.253902 0.000004 25.550001
v -19.990416 18.000010 54.923210
v -12.397377 20.468275 34.061508
v -50.323677 -0.000001 -8.873423
vn -0.0000 1.0000 -0.0000
vn -0.4856 0.8739 0.0236
vn -0.4638 0.8785 -0.1142
vn 0.2797 0.5756 -0.7684
vn -0.7050 0.5807 -0.4070
vn -0.1521 0.9880 0.0268
vn -0.0303 0.9720 0.2331
vn -0.8017 0.5807 0.1414
vn -0.2418 0.9266 0.2881
vn 0.7082 0.5756 -0.4089
vn -0.5233 0.5807 0.6236
vn 0.8053 0.5756 0.1420
vn 0.5214 0.8486 -0.0894
vn -0.1463 0.9748 0.1686
vn -0.0000 0.9266 0.3761
vn -0.0000 0.5807 0.8141
vn 0.2702 0.5738 -0.7732
vn 0.5359 0.5781 0.6154
vn -0.0000 0.9445 0.3285
vn 0.4856 0.8739 0.0236
vn 0.4638 0.8785 -0.1142
vn -0.2797 0.5756 -0.7684
vn -0.2702 0.5738 -0.7732
vn 0.7050 0.5807 -0.4070
vn 0.1521 0.9880 0.0268
vn 0.0303 0.9720 0.2331
vn 0.8017 0.5807 0.1414
vn 0.2418 0.9266 0.2881
vn -0.7082 0.5756 -0.4089
vn 0.5233 0.5807 0.6236
vn -0.8053 0.5756 0.1420
vn -0.5214 0.8486 -0.0894
vn 0.1463 0.9748 0.1686
vn -0.5359 0.5781 0.6154
vt 0.640962 0.525088
vt 0.720892 0.572472
vt 0.628886 0.610000
vt 0.500000 0.533595
vt 0.544762 0.446710
vt 0.667373 0.620000
vt 0.781017 0.620000
vt 0.724195 1.000000
vt 0.893800 0.734019
vt 1.000000 0.734019
vt 0.946900 1.000000
vt 0.668721 0.471205
vt 0.742227 0.390000
vt 1.104718 0.734019
vt 1.052359 1.000000
vt 0.791183 0.436035
vt 0.551492 0.620000
vt 0.609433 1.000000
vt 0.210529 0.734019
vt 0.157624 1.000000
vt 0.104718 0.734019
vt 0.435818 0.620000
vt 0.493655 1.000000
vt 0.323539 0.720270
vt 0.319768 0.734019
vt 0.951045 0.436035
vt 1.000000 0.390000
vt 0.265148 1.000000
vt 0.770474 0.000000
vt 0.696100 0.380000
vt 0.657692 0.114019
vt 0.660134 0.000000
vt 0.377793 1.000000
vt 0.371114 0.610000
vt 0.279107 0.572472
vt 0.359038 0.525088
vt 0.455238 0.446710
vt 0.884119 0.000000
vt 0.827297 0.380000
vt 0.855392 1.000000
vt 0.891358 0.620000
vt 0.551492 0.114019
vt 0.604592 0.380000
vt 0.331279 0.471205
vt 0.257773 0.390000
vt 0.499134 0.380000
vt 0.446775 0.114019
vt 0.208817 0.436035
vt 1.000000 0.000000
vt 0.942059 0.380000
vt 0.393869 0.380000
vt 0.340964 0.114019
vt 1.115675 -0.000000
vt 1.057837 0.380000
vt 0.115675 -0.000000
vt 0.227954 0.100270
vt 0.231726 0.114019
vt 0.048955 0.436035
vt 0.000000 0.390000
vt 0.286345 0.380000
vt 0.173700 0.380000
s 1
f 1/1/1 2/2/1 3/3/1
f 3/3/2 4/4/2 1/1/2
f 4/4/3 5/5/3 1/1/3
f 6/6/4 7/7/4 8/8/4
f 2/9/5 1/10/5 8/11/5
f 5/5/6 10/12/6 1/1/6
f 5/5/7 11/13/7 10/12/7
f 10/14/8 8/15/8 1/10/8
f 10/12/9 11/13/9 12/16/9
f 13/17/10 6/6/10 8/18/10
f 12/19/11 8/20/11 10/21/11
f 14/22/12 13/17/12 8/23/12
f 15/24/13 14/22/13 16/25/13
f 16/26/14 11/13/14 15/27/14
f 16/26/15 12/16/15 11/13/15
f 16/25/16 8/28/16 12/19/16
f 23/29/17 21/30/17 18/31/17 24/32/17
f 8/33/18 16/25/18 14/22/18
f 4/4/19 3/3/19 17/34/19
f 18/35/1 19/36/1 17/34/1
f 4/4/20 17/34/20 19/36/20
f 20/37/21 4/4/21 19/36/21
f 22/38/22 21/39/22 23/29/22
f 2/9/23 8/40/23 7/7/23 9/41/23
f 19/42/24 18/31/24 21/43/24
f 25/44/25 20/37/25 19/36/25
f 26/45/26 20/37/26 25/44/26
f 19/42/27 21/46/27 25/47/27
f 26/45/28 25/44/28 27/48/28
f 28/49/29 21/50/29 22/38/29
f 25/47/30 21/51/30 27/52/30
f 29/53/31 21/54/31 28/49/31
f 29/55/32 30/56/32 31/57/32
f 26/45/33 31/58/33 30/59/33
f 27/48/15 31/58/15 26/45/15
f 27/52/16 21/60/16 31/57/16
f 31/57/34 21/61/34 29/55/34
